<svg width="40" height="40" viewBox="0 0 40 40" fill="none" xmlns="http://www.w3.org/2000/svg">
<g id="plus-svgrepo-com 1">
<path id="Vector" fill-rule="evenodd" clip-rule="evenodd" d="M18.3333 28.3333C18.3333 29.2538 19.0795 30 20 30C20.9205 30 21.6667 29.2538 21.6667 28.3333V21.6667H28.3333C29.2538 21.6667 30 20.9205 30 20C30 19.0795 29.2538 18.3333 28.3333 18.3333H21.6667V11.6667C21.6667 10.7462 20.9205 10 20 10C19.0795 10 18.3333 10.7462 18.3333 11.6667V18.3333H11.6667C10.7462 18.3333 10 19.0795 10 20C10 20.9205 10.7462 21.6667 11.6667 21.6667H18.3333V28.3333Z" fill="#9CC3D5"/>
</g>
</svg>
