<svg width="30" height="30" viewBox="0 0 30 30" fill="none" xmlns="http://www.w3.org/2000/svg">
<g id="menu-horizontal-svgrepo-com 1">
<path id="Vector" fill-rule="evenodd" clip-rule="evenodd" d="M5 15C5 14.3096 5.55965 13.75 6.25 13.75C6.94035 13.75 7.5 14.3096 7.5 15C7.5 15.6904 6.94035 16.25 6.25 16.25C5.55965 16.25 5 15.6904 5 15ZM6.25 18.75C8.32106 18.75 10 17.0711 10 15C10 12.9289 8.32106 11.25 6.25 11.25C4.17894 11.25 2.5 12.9289 2.5 15C2.5 17.0711 4.17894 18.75 6.25 18.75ZM15 13.75C14.3096 13.75 13.75 14.3096 13.75 15C13.75 15.6904 14.3096 16.25 15 16.25C15.6904 16.25 16.25 15.6904 16.25 15C16.25 14.3096 15.6904 13.75 15 13.75ZM18.75 15C18.75 17.0711 17.0711 18.75 15 18.75C12.9289 18.75 11.25 17.0711 11.25 15C11.25 12.9289 12.9289 11.25 15 11.25C17.0711 11.25 18.75 12.9289 18.75 15ZM23.75 13.75C23.0596 13.75 22.5 14.3096 22.5 15C22.5 15.6904 23.0596 16.25 23.75 16.25C24.4404 16.25 25 15.6904 25 15C25 14.3096 24.4404 13.75 23.75 13.75ZM27.5 15C27.5 17.0711 25.8211 18.75 23.75 18.75C21.6789 18.75 20 17.0711 20 15C20 12.9289 21.6789 11.25 23.75 11.25C25.8211 11.25 27.5 12.9289 27.5 15Z" fill="#9CC3D5"/>
</g>
</svg>
