<svg width="30" height="30" viewBox="0 0 30 30" fill="none" xmlns="http://www.w3.org/2000/svg">
<g id="edit-svgrepo-com 1">
<path id="Vector" fill-rule="evenodd" clip-rule="evenodd" d="M17.7903 7.20971C19.0107 5.98933 20.9895 5.98933 22.2098 7.20971L23.0937 8.09359C24.3141 9.31398 24.3141 11.2926 23.0937 12.513L12.929 22.6776H8.87573C8.18537 22.6776 7.62572 22.118 7.62573 21.4276V17.3744L17.7903 7.20971ZM20.4421 8.97748L21.326 9.86136C21.57 10.1054 21.57 10.5012 21.326 10.7452L20.0001 12.0711L18.2323 10.3033L19.5581 8.97748C19.8022 8.7334 20.198 8.7334 20.4421 8.97748ZM18.2323 13.8389L11.8935 20.1776H10.1257V18.4099L16.4646 12.0711L18.2323 13.8389Z" fill="black" fill-opacity="0.29"/>
</g>
</svg>
