<svg width="50" height="50" viewBox="0 0 50 50" fill="none" xmlns="http://www.w3.org/2000/svg">
<g id="text-files-svgrepo-com 1">
<path id="Vector" d="M14.5833 14.5833C13.4327 14.5833 12.5 15.5161 12.5 16.6667C12.5 17.8173 13.4327 18.75 14.5833 18.75H27.0833C28.234 18.75 29.1667 17.8173 29.1667 16.6667C29.1667 15.5161 28.234 14.5833 27.0833 14.5833H14.5833Z" fill="#8AAAE5"/>
<path id="Vector_2" d="M12.5 25C12.5 23.8494 13.4327 22.9167 14.5833 22.9167H27.0833C28.234 22.9167 29.1667 23.8494 29.1667 25C29.1667 26.1506 28.234 27.0833 27.0833 27.0833H14.5833C13.4327 27.0833 12.5 26.1506 12.5 25Z" fill="#8AAAE5"/>
<path id="Vector_3" d="M14.5833 31.25C13.4327 31.25 12.5 32.1827 12.5 33.3333C12.5 34.484 13.4327 35.4167 14.5833 35.4167H27.0833C28.234 35.4167 29.1667 34.484 29.1667 33.3333C29.1667 32.1827 28.234 31.25 27.0833 31.25H14.5833Z" fill="#8AAAE5"/>
<path id="Vector_4" fill-rule="evenodd" clip-rule="evenodd" d="M12.1817 5.78704H15.1165C16.5258 4.47735 18.4782 3.7037 20.515 3.7037H38.7442C42.6776 3.7037 46.2963 6.58893 46.2963 10.6481V30.0927C46.2963 34.1518 42.6776 37.037 38.7442 37.037H37.838C37.1942 40.5725 34.1373 43.287 30.4109 43.287H12.1817C7.98001 43.287 4.62964 39.836 4.62964 35.6481V13.4259C4.62964 9.23814 7.98001 5.78704 12.1817 5.78704ZM38.7442 32.8704H37.963V13.4259C37.963 11.2473 37.0563 9.26806 35.5946 7.87037H38.7442C40.8513 7.87037 42.1296 9.33793 42.1296 10.6481V30.0927C42.1296 31.4029 40.8513 32.8704 38.7442 32.8704ZM12.1817 9.9537C10.3428 9.9537 8.79631 11.4772 8.79631 13.4259V35.6481C8.79631 37.5968 10.3428 39.1204 12.1817 39.1204H30.4109C32.2498 39.1204 33.7963 37.5968 33.7963 35.6481V13.4259C33.7963 11.4772 32.2498 9.9537 30.4109 9.9537H12.1817Z" fill="#8AAAE5"/>
</g>
</svg>
