<svg width="40" height="40" viewBox="0 0 40 40" fill="none" xmlns="http://www.w3.org/2000/svg">
<g id="menu-vertical-svgrepo-com 1">
<path id="Vector" fill-rule="evenodd" clip-rule="evenodd" d="M20 6.66666C19.0795 6.66666 18.3333 7.41286 18.3333 8.33333C18.3333 9.2538 19.0795 10 20 10C20.9205 10 21.6667 9.2538 21.6667 8.33333C21.6667 7.41286 20.9205 6.66666 20 6.66666ZM25 8.33333C25 11.0947 22.7615 13.3333 20 13.3333C17.2385 13.3333 15 11.0947 15 8.33333C15 5.57191 17.2385 3.33333 20 3.33333C22.7615 3.33333 25 5.57191 25 8.33333ZM20 18.3333C19.0795 18.3333 18.3333 19.0795 18.3333 20C18.3333 20.9205 19.0795 21.6667 20 21.6667C20.9205 21.6667 21.6667 20.9205 21.6667 20C21.6667 19.0795 20.9205 18.3333 20 18.3333ZM25 20C25 22.7615 22.7615 25 20 25C17.2385 25 15 22.7615 15 20C15 17.2385 17.2385 15 20 15C22.7615 15 25 17.2385 25 20ZM18.3333 31.6667C18.3333 30.7462 19.0795 30 20 30C20.9205 30 21.6667 30.7462 21.6667 31.6667C21.6667 32.5872 20.9205 33.3333 20 33.3333C19.0795 33.3333 18.3333 32.5872 18.3333 31.6667ZM20 36.6667C22.7615 36.6667 25 34.4282 25 31.6667C25 28.9052 22.7615 26.6667 20 26.6667C17.2385 26.6667 15 28.9052 15 31.6667C15 34.4282 17.2385 36.6667 20 36.6667Z" fill="#8AAAE5"/>
</g>
</svg>
